<?xml version="1.0" encoding="UTF-8"?>
<svg width="55" height="55" id="_图层_2" data-name="图层 2" xmlns="http://www.w3.org/2000/svg" viewBox="0 0 32 32">
  <defs>
    <style>
      .cls-1 {
        fill: #FFFFFF;
      }
    </style>
  </defs>
  <g id="_图层_2-2" data-name="图层 2">
    <path class="cls-1" d="M19.71,28.26c-.86,.86-2.26,.86-3.12,0-.86-.86-.86-2.26,0-3.12l14.49-14.49c-1.48-4.17-4.64-7.55-8.67-9.31L7.6,16.15c-.86,.86-2.26,.86-3.12,0-.86-.86-.86-2.26,0-3.12L17.44,.06c-.47-.04-.95-.06-1.44-.06C7.16,0,0,7.16,0,16c0,3.81,1.33,7.31,3.56,10.06l15.21-15.21c.86-.86,2.26-.86,3.12,0,.86,.86,.86,2.26,0,3.12L6.78,29.08c2.61,1.84,5.79,2.92,9.22,2.92,8.84,0,16-7.16,16-16,0,0,0-.02,0-.03l-12.29,12.29Z"/>
  </g>
</svg>